<?xml version="1.0" standalone="no"?><svg xmlns="http://www.w3.org/2000/svg" viewBox="0 0 1440 320"><path fill="#ff5500" fill-opacity="1" d="M0,128L6.2,154.7C12.3,181,25,235,37,240C49.2,245,62,203,74,160C86.2,117,98,75,111,85.3C123.1,96,135,160,148,186.7C160,213,172,203,185,186.7C196.9,171,209,149,222,160C233.8,171,246,213,258,224C270.8,235,283,213,295,202.7C307.7,192,320,192,332,181.3C344.6,171,357,149,369,144C381.5,139,394,149,406,149.3C418.5,149,431,139,443,149.3C455.4,160,468,192,480,213.3C492.3,235,505,245,517,261.3C529.2,277,542,299,554,293.3C566.2,288,578,256,591,256C603.1,256,615,288,628,261.3C640,235,652,149,665,106.7C676.9,64,689,64,702,58.7C713.8,53,726,43,738,48C750.8,53,763,75,775,85.3C787.7,96,800,96,812,85.3C824.6,75,837,53,849,74.7C861.5,96,874,160,886,197.3C898.5,235,911,245,923,234.7C935.4,224,948,192,960,181.3C972.3,171,985,181,997,170.7C1009.2,160,1022,128,1034,128C1046.2,128,1058,160,1071,186.7C1083.1,213,1095,235,1108,208C1120,181,1132,107,1145,80C1156.9,53,1169,75,1182,96C1193.8,117,1206,139,1218,154.7C1230.8,171,1243,181,1255,208C1267.7,235,1280,277,1292,250.7C1304.6,224,1317,128,1329,96C1341.5,64,1354,96,1366,96C1378.5,96,1391,64,1403,58.7C1415.4,53,1428,75,1434,85.3L1440,96L1440,320L1433.8,320C1427.7,320,1415,320,1403,320C1390.8,320,1378,320,1366,320C1353.8,320,1342,320,1329,320C1316.9,320,1305,320,1292,320C1280,320,1268,320,1255,320C1243.1,320,1231,320,1218,320C1206.2,320,1194,320,1182,320C1169.2,320,1157,320,1145,320C1132.3,320,1120,320,1108,320C1095.4,320,1083,320,1071,320C1058.5,320,1046,320,1034,320C1021.5,320,1009,320,997,320C984.6,320,972,320,960,320C947.7,320,935,320,923,320C910.8,320,898,320,886,320C873.8,320,862,320,849,320C836.9,320,825,320,812,320C800,320,788,320,775,320C763.1,320,751,320,738,320C726.2,320,714,320,702,320C689.2,320,677,320,665,320C652.3,320,640,320,628,320C615.4,320,603,320,591,320C578.5,320,566,320,554,320C541.5,320,529,320,517,320C504.6,320,492,320,480,320C467.7,320,455,320,443,320C430.8,320,418,320,406,320C393.8,320,382,320,369,320C356.9,320,345,320,332,320C320,320,308,320,295,320C283.1,320,271,320,258,320C246.2,320,234,320,222,320C209.2,320,197,320,185,320C172.3,320,160,320,148,320C135.4,320,123,320,111,320C98.5,320,86,320,74,320C61.5,320,49,320,37,320C24.6,320,12,320,6,320L0,320Z"></path></svg>